<?xml version="1.0" standalone="no"?>
<!DOCTYPE svg PUBLIC "-//W3C//DTD SVG 20010904//EN"
 "http://www.w3.org/TR/2001/REC-SVG-20010904/DTD/svg10.dtd">
<svg version="1.0" xmlns="http://www.w3.org/2000/svg"
 width="78.000000pt" height="86.000000pt" viewBox="0 0 78.000000 86.000000"
 preserveAspectRatio="xMidYMid meet">

<g transform="translate(0.000000,86.000000) scale(0.100000,-0.100000)"
fill="#000000" stroke="none">
<path d="M344 704 c-72 -35 -83 -128 -22 -179 28 -23 32 -35 36 -84 4 -49 0
-62 -22 -95 -14 -22 -26 -43 -26 -47 0 -5 -31 -9 -70 -9 l-70 0 0 -49 c0 -33
7 -62 21 -85 l21 -36 178 0 179 0 20 29 c26 37 31 141 6 141 -8 0 -15 9 -15
20 0 17 -7 20 -44 20 -38 0 -45 -3 -49 -22 -3 -20 -6 -19 -20 15 -10 20 -22
37 -27 37 -6 0 -10 29 -10 65 0 62 2 68 35 101 29 29 35 42 35 77 0 49 -19 81
-60 102 -36 19 -57 19 -96 -1z m86 -24 c3 -1 -4 -5 -15 -9 -11 -5 -25 -5 -30
0 -6 4 -17 4 -25 -1 -13 -8 -12 -10 2 -10 10 0 16 -7 15 -19 0 -11 -5 -17 -9
-15 -5 3 -6 9 -3 14 10 16 -20 17 -32 1 -16 -21 -16 -36 0 -23 9 8 12 1 12
-32 0 -43 0 -43 -17 -20 -26 32 -22 63 11 95 26 25 58 32 91 19z m25 -51 c-2
-10 0 -21 6 -24 14 -10 11 -32 -6 -32 -11 0 -12 4 -4 14 9 9 8 13 0 13 -7 0
-10 10 -7 25 3 14 0 25 -5 25 -6 0 -7 5 -3 11 9 15 23 -9 19 -32z m-25 -4 c0
-5 -5 -3 -10 5 -5 8 -10 20 -10 25 0 6 5 3 10 -5 5 -8 10 -19 10 -25z m-43
-37 c-3 -8 -6 -5 -6 6 -1 11 2 17 5 13 3 -3 4 -12 1 -19z m43 17 c0 -2 -6 -8
-13 -14 -10 -8 -14 -7 -14 2 0 8 6 14 14 14 7 0 13 -1 13 -2z m-43 -51 c-3 -3
-12 -4 -19 -1 -8 3 -5 6 6 6 11 1 17 -2 13 -5z m50 -9 c4 -4 3 -5 -4 -1 -6 3
-16 -1 -20 -9 -7 -12 -14 -14 -34 -5 l-24 10 25 -3 c15 -1 24 3 23 10 -3 13
22 12 34 -2z m-37 -120 c0 -37 -4 -65 -10 -65 -6 0 -10 28 -10 65 0 37 4 65
10 65 6 0 10 -28 10 -65z m40 -110 c0 -11 -12 -15 -50 -15 -40 0 -48 3 -44 15
4 10 20 15 50 15 32 0 44 -4 44 -15z m150 -75 l0 -30 -195 0 -195 0 0 30 0 30
195 0 195 0 0 -30z m-22 -72 c-4 -10 -50 -14 -175 -16 -145 -2 -172 0 -177 13
-5 13 18 15 175 15 140 0 180 -3 177 -12z"/>
</g>
</svg>
