<svg id="Layer_1" data-name="Layer 1" xmlns="http://www.w3.org/2000/svg" viewBox="60.25 61.79 420.06 99.02"><defs><style>.cls-1{fill:#b7bfc4;}.cls-2{fill:#003869;}</style></defs><title>Artboard 1</title><path class="cls-1" d="M206.56,112.36a29.08,29.08,0,1,1-29.44-29.12A28.88,28.88,0,0,1,206.56,112.36Zm-44.16,0c0,9.4,5.95,16.08,14.93,16.08,8.56,0,15.24-6.26,15.24-16,0-9.4-6.16-16.08-15.24-16.08C168.66,96.39,162.4,103.18,162.4,112.36ZM134,90.6c2.61-5.74,7.09-8.46,11.69-8.46a13.12,13.12,0,0,1,6.05,1.46l-4.28,11.9a9.79,9.79,0,0,0-4.07-1.14c-4,0-7.1,4.59-7.41,12.73-.1,3-.1,6.47-.1,9.5V139H122V83.6h12Zm-59.86.15c5-5,10.75-7.51,17.43-7.51,14.31,0,26.21,11.9,26.21,29.23,0,17-12.43,29.12-26.52,29.12-7,0-12.11-2.5-17.12-7.3v26.09H60.25V84.7H74.14Zm-.63,21.51c0,10,6.68,16.6,15.25,16.6s15-7,15-16.5c0-9.08-5.85-16.39-15-16.39C79.88,96,73.51,102.55,73.51,112.26Z"></path><path class="cls-2" d="M331.74,112.34A29.08,29.08,0,1,1,302.3,83.21,28.89,28.89,0,0,1,331.74,112.34Zm-44.16,0c0,9.39,5.95,16.07,14.93,16.07,8.56,0,15.24-6.26,15.24-16,0-9.4-6.16-16.08-15.24-16.08C293.84,96.36,287.58,103.15,287.58,112.34Zm49-28.15h13.89v55.44H336.59ZM226,91.18c5-5,10.76-7.52,17.44-7.52,14.3,0,26.2,11.9,26.2,29.23,0,17-12.42,29.13-26.52,29.13-7,0-12.11-2.51-17.12-7.31v26.1H212.14V85.12H226Zm-.62,21.5c0,10,6.68,16.6,15.24,16.6s15-7,15-16.49c0-9.08-5.84-16.39-15-16.39C231.76,96.4,225.4,103,225.4,112.68ZM372.66,90c5.33-4.49,10.23-7.1,16.39-7.1,10.34,0,19,7.1,19,19v37.89H394.17v-26.2c0-11-.94-18-9.4-18a10.87,10.87,0,0,0-9.39,5.33c-2.82,4.49-2.72,9.5-2.72,15.24v23.59H358.78V84.33h13.88Zm46-26.1h13.89V84.33h8.24v11.9h-8.24v43.53H418.63V96.23h-7.1V84.33h7.1Zm37.7,51.88c-8.87-4.49-13.36-9.92-13.36-16.91,0-8.67,7.31-16,18-16a22.55,22.55,0,0,1,18.27,9.18l-8.57,8.67c-3.13-3.13-6.26-5.12-9.6-5.12-2.82,0-5,1.15-5,3.35s2,3,5,4.59l5.12,2.61c9.18,4.69,14.09,9.5,14.09,17.74,0,9.92-7.83,17.33-19.94,17.33a23.4,23.4,0,0,1-19.42-9.5l8.56-9.39c3.24,3.76,7.94,6.47,11.59,6.47,3.45,0,6.16-2,6.16-4.49s-2.3-4.17-6.16-6.16Z"></path><circle class="cls-2" cx="343.34" cy="69.46" r="7.67"></circle></svg>
